<?xml version="1.0" encoding="UTF-8" standalone="no"?>
<!-- Created with Inkscape (http://www.inkscape.org/) -->

<svg
   xmlns:dc="http://purl.org/dc/elements/1.1/"
   xmlns:cc="http://creativecommons.org/ns#"
   xmlns:rdf="http://www.w3.org/1999/02/22-rdf-syntax-ns#"
   xmlns:svg="http://www.w3.org/2000/svg"
   xmlns="http://www.w3.org/2000/svg"
   xmlns:sodipodi="http://sodipodi.sourceforge.net/DTD/sodipodi-0.dtd"
   xmlns:inkscape="http://www.inkscape.org/namespaces/inkscape"
   width="162"
   height="65.569588"
   id="svg15747"
   version="1.1"
   inkscape:version="0.48.5 r10040"
   sodipodi:docname="New document 33">
  <defs
     id="defs15749" />
  <sodipodi:namedview
     id="base"
     pagecolor="#000000"
     bordercolor="#666666"
     borderopacity="1.0"
     inkscape:pageopacity="0"
     inkscape:pageshadow="2"
     inkscape:zoom="2.8"
     inkscape:cx="55.398834"
     inkscape:cy="44.154967"
     inkscape:document-units="px"
     inkscape:current-layer="layer1"
     showgrid="false"
     fit-margin-top="0"
     fit-margin-left="0"
     fit-margin-right="0"
     fit-margin-bottom="0"
     inkscape:window-width="1366"
     inkscape:window-height="702"
     inkscape:window-x="0"
     inkscape:window-y="27"
     inkscape:window-maximized="1" />
  <metadata
     id="metadata15752">
    <rdf:RDF>
      <cc:Work
         rdf:about="">
        <dc:format>image/svg+xml</dc:format>
        <dc:type
           rdf:resource="http://purl.org/dc/dcmitype/StillImage" />
        <dc:title></dc:title>
      </cc:Work>
    </rdf:RDF>
  </metadata>
  <g
     inkscape:label="Layer 1"
     inkscape:groupmode="layer"
     id="layer1"
     transform="translate(-294,-499.80937)">
    <path
       style="font-size:medium;font-style:normal;font-variant:normal;font-weight:normal;font-stretch:normal;text-indent:0;text-align:start;text-decoration:none;line-height:normal;letter-spacing:normal;word-spacing:normal;text-transform:none;direction:ltr;block-progression:tb;writing-mode:lr-tb;text-anchor:start;baseline-shift:baseline;color:#000000;fill:#ffffff;fill-opacity:1;stroke:#000000;stroke-width:0.01;marker:none;visibility:visible;display:inline;overflow:visible;enable-background:accumulate;font-family:Sans;-inkscape-font-specification:Sans;stroke-opacity:1;stroke-miterlimit:4;stroke-dasharray:none"
       d="M 304.71875,499.8125 A 2.50025,2.50025 0 0 0 302.5,502.375 l 0,4 -7.5,0 -1,0 0,1 0,13.90625 0,1 0,20.1875 0,1 0,13.90625 0,1 1,0 7.5,0 0,4.4375 a 2.50025,2.50025 0 0 0 2.21875,2.5625 2.50025,2.50025 0 0 0 0.25,0 2.50025,2.50025 0 0 0 2.53125,-2.5625 l 0,-4.4375 15,0 0,4.4375 a 2.50025,2.50025 0 0 0 2.21875,2.5625 2.50025,2.50025 0 0 0 0.25,0 2.50025,2.50025 0 0 0 0.28125,0 2.50025,2.50025 0 0 0 0.25,-0.0625 2.50025,2.50025 0 0 0 2,-2.5 l 0,-4.4375 15,0 0,4.4375 a 2.50025,2.50025 0 0 0 2.21875,2.5625 2.50025,2.50025 0 0 0 0.25,0 2.50025,2.50025 0 0 0 2.53125,-2.5625 l 0,-4.4375 15,0 0,4.4375 a 2.50025,2.50025 0 0 0 2.21875,2.5625 2.50025,2.50025 0 0 0 0.25,0 2.50025,2.50025 0 0 0 2.53125,-2.5625 l 0,-4.4375 15,0 0,4.4375 a 2.50025,2.50025 0 0 0 2.21875,2.5625 2.50025,2.50025 0 0 0 0.25,0 2.50025,2.50025 0 0 0 2.53125,-2.5625 l 0,-4.4375 15,0 0,4.4375 a 2.50025,2.50025 0 0 0 2.21875,2.5625 2.50025,2.50025 0 0 0 0.25,0 2.50025,2.50025 0 0 0 2.53125,-2.5625 l 0,-4.4375 15,0 0,4.4375 a 2.50025,2.50025 0 0 0 2.21875,2.5625 2.50025,2.50025 0 0 0 0.25,0 2.50025,2.50025 0 0 0 2.53125,-2.5625 l 0,-4.4375 15,0 0,4.4375 a 2.50025,2.50025 0 0 0 2.21875,2.5625 2.50025,2.50025 0 0 0 0.25,0 2.50025,2.50025 0 0 0 2.53125,-2.5625 l 0,-4.4375 7.5,0 1,0 0,-1 0,-50 0,-1 -1,0 -7.5,0 0,-4 a 2.50025,2.50025 0 0 0 -2.53125,-2.5625 2.50025,2.50025 0 0 0 -0.25,0 2.50025,2.50025 0 0 0 -2.21875,2.5625 l 0,4 -15,0 0,-4 a 2.50025,2.50025 0 0 0 -2.53125,-2.5625 2.50025,2.50025 0 0 0 -0.25,0 2.50025,2.50025 0 0 0 -2.21875,2.5625 l 0,4 -15,0 0,-4 a 2.50025,2.50025 0 0 0 -2.53125,-2.5625 2.50025,2.50025 0 0 0 -0.25,0 2.50025,2.50025 0 0 0 -2.21875,2.5625 l 0,4 -15,0 0,-4 a 2.50025,2.50025 0 0 0 -2.53125,-2.5625 2.50025,2.50025 0 0 0 -0.25,0 2.50025,2.50025 0 0 0 -2.21875,2.5625 l 0,4 -15,0 0,-4 a 2.50025,2.50025 0 0 0 -2.53125,-2.5625 2.50025,2.50025 0 0 0 -0.25,0 2.50025,2.50025 0 0 0 -2.21875,2.5625 l 0,4 -15,0 0,-4 a 2.50025,2.50025 0 0 0 -2.53125,-2.5625 2.50025,2.50025 0 0 0 -0.25,0 2.50025,2.50025 0 0 0 -2.21875,2.5625 l 0,4 -15,0 0,-4 a 2.50025,2.50025 0 0 0 0,-0.25 2.50025,2.50025 0 0 0 -0.1875,-0.71875 2.50025,2.50025 0 0 0 -0.0937,-0.25 2.50025,2.50025 0 0 0 -0.4375,-0.59375 2.50025,2.50025 0 0 0 -1.28125,-0.6875 2.50025,2.50025 0 0 0 -0.53125,-0.0625 2.50025,2.50025 0 0 0 -0.25,0 2.50025,2.50025 0 0 0 -2.21875,2.5625 l 0,4 -15,0 0,-4 a 2.50025,2.50025 0 0 0 -2.53125,-2.5625 2.50025,2.50025 0 0 0 -0.25,0 z M 296,508.375 l 158,0 0,48 -158,0 0,-12.96875 c 5.64066,-0.51192 10.0625,-5.26078 10.0625,-11.03125 0,-5.77047 -4.42184,-10.51933 -10.0625,-11.03125 l 0,-12.96875 z m 69.78125,7.15625 0.84375,7.6875 -7.625,-2.15625 -0.5625,3.75 7.3125,0.5625 -4.71875,6.34375 3.59375,1.875 3.0625,-6.96875 3.4375,6.96875 3.5,-1.875 -4.78125,-6.34375 7.375,-0.5625 -0.5,-3.75 -7.78125,2.15625 0.84375,-7.6875 -4,0 z m 49.6875,1.4375 c -2.64323,3e-5 -4.73699,0.84378 -6.3125,2.5625 -1.5625,1.71878 -2.34375,4.06253 -2.34375,7.03125 0,2.70835 0.6927,4.83856 2.125,6.375 1.4453,1.53647 3.4427,2.31251 5.96875,2.3125 2.7604,10e-6 4.78124,-1.09895 6.03125,-3.3125 l 0.21875,0 c -0.13023,3.98438 -0.93491,6.88282 -2.40625,8.71875 -1.45834,1.83594 -3.64584,2.75001 -6.5625,2.75 -1.28906,10e-6 -2.37761,-0.14323 -3.25,-0.46875 l 0,3.03125 c 0.87239,0.23437 2.00781,0.34375 3.375,0.34375 8.3203,0 12.46873,-5.57812 12.46875,-16.75 -2e-5,-3.9453 -0.82033,-7.02341 -2.5,-9.25 -1.66668,-2.22653 -3.94793,-3.34372 -6.8125,-3.34375 z m -69.46875,0.25 -12.96875,19.1875 0,3.125 13.21875,0 0,6.40625 3.4375,0 0,-6.40625 4.15625,0 0,-3.25 -4.15625,0 0,-19.0625 -3.6875,0 z m -35.34375,0.15625 0,3.25 14.71875,0 -11,25.3125 3.78125,0 L 329,520.21875 l 0,-2.84375 -18.34375,0 z m 74.1875,0 -1.0625,13.4375 1.75,1.125 c 1.84895,-0.33853 3.34113,-0.53123 4.5,-0.53125 4.47915,2e-5 6.71873,1.92189 6.71875,5.75 -2e-5,4.08855 -2.18752,6.12501 -6.5625,6.125 -2.81251,10e-6 -5.15626,-0.62499 -7.03125,-1.875 l 0,3.375 c 1.71874,1.02865 4.05208,1.53125 6.96875,1.53125 3.26822,0 5.79686,-0.8151 7.59375,-2.46875 1.79685,-1.66666 2.68748,-4.01562 2.6875,-7.0625 -2e-5,-2.59114 -0.83856,-4.64061 -2.53125,-6.125 -1.67971,-1.49738 -3.89063,-2.24998 -6.625,-2.25 -1.32813,2e-5 -2.66928,0.14585 -4.0625,0.40625 l 0.75,-8.1875 10.375,0 0,-3.25 -13.46875,0 z m 47.96875,0 -1.0625,13.4375 1.75,1.125 c 1.84895,-0.33853 3.34113,-0.53123 4.5,-0.53125 4.47915,2e-5 6.71873,1.92189 6.71875,5.75 -2e-5,4.08855 -2.18752,6.12501 -6.5625,6.125 -2.81251,10e-6 -5.15626,-0.62499 -7.03125,-1.875 l 0,3.375 c 1.71874,1.02865 4.05208,1.53125 6.96875,1.53125 3.26822,0 5.79686,-0.8151 7.59375,-2.46875 1.79685,-1.66666 2.68748,-4.01562 2.6875,-7.0625 -2e-5,-2.59114 -0.83856,-4.64061 -2.53125,-6.125 -1.67971,-1.49738 -3.89063,-2.24998 -6.625,-2.25 -1.32813,2e-5 -2.66928,0.14585 -4.0625,0.40625 l 0.75,-8.1875 10.375,0 0,-3.25 -13.46875,0 z M 415.5,519.96875 c 1.73175,3e-5 3.14582,0.74221 4.1875,2.1875 1.04165,1.44534 1.56249,3.12762 1.5625,5.09375 -10e-6,1.34116 -0.56773,2.55731 -1.6875,3.625 -1.11981,1.0547 -2.50262,1.59376 -4.15625,1.59375 -1.65366,10e-6 -2.94532,-0.51561 -3.84375,-1.53125 -0.88542,-1.01561 -1.31251,-2.48696 -1.3125,-4.375 -10e-6,-2.13539 0.45051,-3.74216 1.375,-4.875 0.92447,-1.13279 2.20832,-1.71872 3.875,-1.71875 z m -69.1875,0.9375 0.1875,0 c -0.16931,3.33336 -0.25001,6.14585 -0.25,8.4375 l 0,6.9375 -9.71875,0 8.03125,-11.875 c 0.70311,-1.01561 1.28123,-2.17185 1.75,-3.5 z M 296,523.46875 c 4.53496,0.51498 8.0625,4.22334 8.0625,8.90625 0,4.68352 -3.52666,8.39208 -8.0625,8.90625 l 0,-17.8125 z"
       id="path6353"
       inkscape:connector-curvature="0" />
  </g>
</svg>
