<?xml version="1.0" encoding="UTF-8" standalone="no"?>
<!-- Created with Inkscape (http://www.inkscape.org/) -->

<svg
   xmlns:dc="http://purl.org/dc/elements/1.1/"
   xmlns:cc="http://creativecommons.org/ns#"
   xmlns:rdf="http://www.w3.org/1999/02/22-rdf-syntax-ns#"
   xmlns:svg="http://www.w3.org/2000/svg"
   xmlns="http://www.w3.org/2000/svg"
   xmlns:sodipodi="http://sodipodi.sourceforge.net/DTD/sodipodi-0.dtd"
   xmlns:inkscape="http://www.inkscape.org/namespaces/inkscape"
   width="226.46875"
   height="55.0625"
   id="svg8029"
   version="1.1"
   inkscape:version="0.48.5 r10040"
   sodipodi:docname="New document 11">
  <defs
     id="defs8031" />
  <sodipodi:namedview
     id="base"
     pagecolor="#000000"
     bordercolor="#666666"
     borderopacity="1.0"
     inkscape:pageopacity="0"
     inkscape:pageshadow="2"
     inkscape:zoom="2.8"
     inkscape:cx="64.610553"
     inkscape:cy="30.950154"
     inkscape:document-units="px"
     inkscape:current-layer="g4577"
     showgrid="false"
     fit-margin-top="0"
     fit-margin-left="0"
     fit-margin-right="0"
     fit-margin-bottom="0"
     inkscape:window-width="1366"
     inkscape:window-height="702"
     inkscape:window-x="0"
     inkscape:window-y="27"
     inkscape:window-maximized="1" />
  <metadata
     id="metadata8034">
    <rdf:RDF>
      <cc:Work
         rdf:about="">
        <dc:format>image/svg+xml</dc:format>
        <dc:type
           rdf:resource="http://purl.org/dc/dcmitype/StillImage" />
        <dc:title></dc:title>
      </cc:Work>
    </rdf:RDF>
  </metadata>
  <g
     inkscape:label="Layer 1"
     inkscape:groupmode="layer"
     id="layer1"
     transform="translate(-261.78125,-504.65625)">
    <g
       id="g4577"
       transform="matrix(2.1619443,0,0,2.1619443,223.1972,-314.38988)"
       inkscape:export-filename="C:\Users\gregor.jehle\Downloads\jumper_wire.png"
       inkscape:export-xdpi="90"
       inkscape:export-ydpi="90">
      <path
         style="font-size:medium;font-style:normal;font-variant:normal;font-weight:normal;font-stretch:normal;text-indent:0;text-align:start;text-decoration:none;line-height:normal;letter-spacing:normal;word-spacing:normal;text-transform:none;direction:ltr;block-progression:tb;writing-mode:lr-tb;text-anchor:start;baseline-shift:baseline;color:#000000;fill:#ffffff;fill-opacity:1;stroke:#000000;stroke-width:0.01;marker:none;visibility:visible;display:inline;overflow:visible;enable-background:accumulate;font-family:Sans;-inkscape-font-specification:Sans;stroke-opacity:1;stroke-miterlimit:4;stroke-dasharray:none"
         d="m 374.53125,504.65625 c -28.45447,0 -56.90376,4.9469 -83.0625,14.78125 l -0.375,-0.9375 -20.125,8.03125 0.8125,2.03125 -10,4 0.8125,2.03125 10,-4.0625 0.8125,2.03125 20.0625,-8.0625 -0.4375,-1.0625 C 344.60664,504.06991 405.54337,504.19951 457,523.8125 l -0.4375,1.09375 20.0625,7.96875 1.34375,-3.4375 -0.53125,1.5 10,3.96875 0.8125,-2.03125 -10.0625,-3.96875 0.78125,-2.03125 -20.0625,-7.96875 -0.34375,0.90625 c -26.42016,-10.07453 -55.23029,-15.15625 -84.03125,-15.15625 z"
         transform="matrix(0.46254661,0,0,0.46254661,-103.23911,145.41997)"
         id="path4485"
         inkscape:connector-curvature="0" />
      <path
         style="font-size:medium;font-style:normal;font-variant:normal;font-weight:normal;font-stretch:normal;text-indent:0;text-align:start;text-decoration:none;line-height:normal;letter-spacing:normal;word-spacing:normal;text-transform:none;direction:ltr;block-progression:tb;writing-mode:lr-tb;text-anchor:start;baseline-shift:baseline;color:#000000;fill:#ffffff;fill-opacity:1;stroke:#000000;stroke-width:0.01;marker:none;visibility:visible;display:inline;overflow:visible;enable-background:accumulate;font-family:Sans;-inkscape-font-specification:Sans;stroke-opacity:1;stroke-miterlimit:4;stroke-dasharray:none"
         d="m 374.53125,507.40625 c -23.67208,0 -47.24582,7.54168 -73.03125,22.4375 l -0.59375,-1 -18.65625,10.875 3.25,5.59375 18.6875,-10.875 -0.53125,-0.875 c 25.31262,-14.61211 48.14113,-21.8125 70.875,-21.8125 22.69389,0 45.49064,7.15842 70.75,21.71875 l -0.5625,0.96875 18.65625,10.875 2.21875,-3.71875 1.09375,-1.875 -18.71875,-10.875 -0.53125,0.90625 c -25.72654,-14.83799 -49.28037,-22.34375 -72.90625,-22.34375 z m 91.0625,34.1875 -1.0625,1.90625 9.3125,5.40625 1.09375,-1.84375 -9.34375,-5.46875 z m -182.28125,0 -9.3125,5.46875 1.09375,1.84375 9.3125,-5.40625 -1.09375,-1.90625 z"
         transform="matrix(0.46254661,0,0,0.46254661,-103.23911,145.41997)"
         id="path4479"
         inkscape:connector-curvature="0" />
      <path
         style="font-size:medium;font-style:normal;font-variant:normal;font-weight:normal;font-stretch:normal;text-indent:0;text-align:start;text-decoration:none;line-height:normal;letter-spacing:normal;word-spacing:normal;text-transform:none;direction:ltr;block-progression:tb;writing-mode:lr-tb;text-anchor:start;baseline-shift:baseline;color:#000000;fill:#ffffff;fill-opacity:1;stroke:#000000;stroke-width:0.01;marker:none;visibility:visible;display:inline;overflow:visible;enable-background:accumulate;font-family:Sans;-inkscape-font-specification:Sans;stroke-opacity:1;stroke-miterlimit:4;stroke-dasharray:none"
         d="m 374.53125,509.59375 c -18.88432,0 -37.54867,7.7753 -63.28125,23 l -0.5625,-0.84375 -18.03125,11.875 1.21875,1.84375 -9.0625,5.9375 1.21875,1.8125 8.96875,-6 1.21875,1.8125 18.0625,-11.875 -0.65625,-0.96875 c 25.36848,-14.98514 43.26929,-22.28125 60.90625,-22.28125 17.67021,0 35.61787,7.33248 61.0625,22.375 l -0.59375,0.875 18.03125,11.875 1.21875,-1.8125 9,6 1.21875,-1.8125 -9.0625,-5.9375 1.21875,-1.84375 -18.03125,-11.875 -0.625,0.9375 c -25.81355,-15.28582 -44.51492,-23.09375 -63.4375,-23.09375 z"
         transform="matrix(0.46254661,0,0,0.46254661,-103.23911,145.41997)"
         id="path4481"
         inkscape:connector-curvature="0" />
      <path
         style="font-size:medium;font-style:normal;font-variant:normal;font-weight:normal;font-stretch:normal;text-indent:0;text-align:start;text-decoration:none;line-height:normal;letter-spacing:normal;word-spacing:normal;text-transform:none;direction:ltr;block-progression:tb;writing-mode:lr-tb;text-anchor:start;baseline-shift:baseline;color:#000000;fill:#ffffff;fill-opacity:1;stroke:#000000;stroke-width:0.01;marker:none;visibility:visible;display:inline;overflow:visible;enable-background:accumulate;font-family:Sans;-inkscape-font-specification:Sans;stroke-opacity:1;stroke-miterlimit:4;stroke-dasharray:none"
         d="m 374.53125,511.75 c -13.72046,0 -27.12589,7.79828 -42.5625,22.75 l -0.59375,-0.59375 -15.5,15.1875 1.53125,1.53125 -7.71875,7.53125 1.53125,1.5625 7.6875,-7.53125 1.5,1.5 15.46875,-15.125 -0.90625,-0.9375 c 15.06823,-14.60244 27.48272,-21.5625 39.5625,-21.5625 12.105,0 24.54536,6.99122 39.65625,21.65625 l -0.8125,0.84375 15.46875,15.125 1.5,-1.53125 7.6875,7.5625 1.5625,-1.5625 -7.75,-7.53125 1.53125,-1.53125 -15.46875,-15.1875 -0.6875,0.71875 C 401.72917,519.59367 388.28896,511.75 374.53125,511.75 z"
         transform="matrix(0.46254661,0,0,0.46254661,-103.23911,145.41997)"
         id="path4483"
         inkscape:connector-curvature="0" />
    </g>
  </g>
</svg>
