<?xml version="1.0" encoding="UTF-8" standalone="no"?>
<!-- Created with Inkscape (http://www.inkscape.org/) -->

<svg
   xmlns:dc="http://purl.org/dc/elements/1.1/"
   xmlns:cc="http://creativecommons.org/ns#"
   xmlns:rdf="http://www.w3.org/1999/02/22-rdf-syntax-ns#"
   xmlns:svg="http://www.w3.org/2000/svg"
   xmlns="http://www.w3.org/2000/svg"
   xmlns:sodipodi="http://sodipodi.sourceforge.net/DTD/sodipodi-0.dtd"
   xmlns:inkscape="http://www.inkscape.org/namespaces/inkscape"
   width="52"
   height="65.101234"
   id="svg15108"
   version="1.1"
   inkscape:version="0.48.5 r10040"
   sodipodi:docname="pushbutton.svg">
  <defs
     id="defs15110" />
  <sodipodi:namedview
     id="base"
     pagecolor="#000000"
     bordercolor="#666666"
     borderopacity="1.0"
     inkscape:pageopacity="0"
     inkscape:pageshadow="2"
     inkscape:zoom="2.8"
     inkscape:cx="39.051835"
     inkscape:cy="15.840617"
     inkscape:document-units="px"
     inkscape:current-layer="layer1"
     showgrid="false"
     inkscape:window-width="1366"
     inkscape:window-height="702"
     inkscape:window-x="0"
     inkscape:window-y="27"
     inkscape:window-maximized="1"
     fit-margin-top="0"
     fit-margin-left="0"
     fit-margin-right="0"
     fit-margin-bottom="0" />
  <metadata
     id="metadata15113">
    <rdf:RDF>
      <cc:Work
         rdf:about="">
        <dc:format>image/svg+xml</dc:format>
        <dc:type
           rdf:resource="http://purl.org/dc/dcmitype/StillImage" />
        <dc:title></dc:title>
      </cc:Work>
    </rdf:RDF>
  </metadata>
  <g
     inkscape:label="Layer 1"
     inkscape:groupmode="layer"
     id="layer1"
     transform="translate(-349,-499.80937)">
    <path
       style="font-size:medium;font-style:normal;font-variant:normal;font-weight:normal;font-stretch:normal;text-indent:0;text-align:start;text-decoration:none;line-height:normal;letter-spacing:normal;word-spacing:normal;text-transform:none;direction:ltr;block-progression:tb;writing-mode:lr-tb;text-anchor:start;baseline-shift:baseline;color:#000000;fill:#ffffff;fill-opacity:1;stroke:#000000;stroke-width:0.01;stroke-miterlimit:4;stroke-opacity:1;stroke-dasharray:none;marker:none;visibility:visible;display:inline;overflow:visible;enable-background:accumulate;font-family:Sans;-inkscape-font-specification:Sans"
       d="m 364.5625,499.8125 a 2.50025,2.50025 0 0 0 -2.21875,2.5625 l 0,4 -12.34375,0 -1,0 0,1 0,50 0,1 1,0 12.34375,0 0,4 a 2.50025,2.50025 0 1 0 5,0 l 0,-4 15,0 0,4 a 2.50025,2.50025 0 1 0 5,0 l 0,-4 12.65625,0 1,0 0,-1 0,-50 0,-1 -1,0 -12.65625,0 0,-4 a 2.50025,2.50025 0 0 0 -2.53125,-2.5625 2.50025,2.50025 0 0 0 -0.25,0 2.50025,2.50025 0 0 0 -2.21875,2.5625 l 0,4 -15,0 0,-4 a 2.50025,2.50025 0 0 0 -2.53125,-2.5625 2.50025,2.50025 0 0 0 -0.25,0 z M 351,508.375 l 48,0 0,48 -48,0 0,-48 z"
       id="path15037"
       inkscape:connector-curvature="0" />
    <path
       transform="matrix(0.75,0,0,0.75,-7.5000095,-17.051167)"
       style="fill:#ffffff;fill-opacity:1;stroke:#000000;stroke-width:0.01333333;stroke-miterlimit:4;stroke-opacity:1;stroke-dasharray:none"
       d="m 530,732.36218 c 0,11.0457 -8.95431,20 -20,20 -11.04569,0 -20,-8.9543 -20,-20 0,-11.04569 8.95431,-20 20,-20 11.04569,0 20,8.95431 20,20 z"
       id="path15090"
       inkscape:connector-curvature="0" />
  </g>
</svg>
