<?xml version="1.0" encoding="UTF-8" standalone="no"?>
<!-- Created with Inkscape (http://www.inkscape.org/) -->

<svg
   xmlns:dc="http://purl.org/dc/elements/1.1/"
   xmlns:cc="http://creativecommons.org/ns#"
   xmlns:rdf="http://www.w3.org/1999/02/22-rdf-syntax-ns#"
   xmlns:svg="http://www.w3.org/2000/svg"
   xmlns="http://www.w3.org/2000/svg"
   xmlns:sodipodi="http://sodipodi.sourceforge.net/DTD/sodipodi-0.dtd"
   xmlns:inkscape="http://www.inkscape.org/namespaces/inkscape"
   width="682.13"
   height="182.09875"
   id="svg6974"
   version="1.1"
   inkscape:version="0.48.5 r10040"
   sodipodi:docname="uc_components.svg">
  <defs
     id="defs6976" />
  <sodipodi:namedview
     id="base"
     pagecolor="#ffffff"
     bordercolor="#666666"
     borderopacity="1.0"
     inkscape:pageopacity="0.0"
     inkscape:pageshadow="2"
     inkscape:zoom="0.98994949"
     inkscape:cx="396.68015"
     inkscape:cy="-17.931155"
     inkscape:document-units="px"
     inkscape:current-layer="layer1"
     showgrid="false"
     fit-margin-top="1"
     fit-margin-left="1"
     fit-margin-right="1"
     fit-margin-bottom="1"
     inkscape:window-width="1366"
     inkscape:window-height="702"
     inkscape:window-x="0"
     inkscape:window-y="27"
     inkscape:window-maximized="1" />
  <metadata
     id="metadata6979">
    <rdf:RDF>
      <cc:Work
         rdf:about="">
        <dc:format>image/svg+xml</dc:format>
        <dc:type
           rdf:resource="http://purl.org/dc/dcmitype/StillImage" />
        <dc:title />
      </cc:Work>
    </rdf:RDF>
  </metadata>
  <g
     inkscape:label="Layer 1"
     inkscape:groupmode="layer"
     id="layer1"
     transform="translate(-33.934996,-441.31)">
    <rect
       style="fill:#ff3e42;fill-opacity:1;stroke:#000000;stroke-width:0.01250000000000000;stroke-linecap:round;stroke-linejoin:round;stroke-miterlimit:4;stroke-opacity:1;stroke-dasharray:none"
       id="rect5895"
       width="180"
       height="180"
       x="35"
       y="442.36218" />
    <rect
       style="fill:#3366cf;fill-opacity:1;stroke:#000000;stroke-width:0.01250000000000000;stroke-linecap:round;stroke-linejoin:round;stroke-miterlimit:4;stroke-opacity:1;stroke-dasharray:none"
       id="rect5907"
       width="60"
       height="60"
       x="255"
       y="562.36218" />
    <rect
       style="fill:#d100ad;fill-opacity:1;stroke:#000000;stroke-width:0.01250000000000000;stroke-linecap:round;stroke-linejoin:round;stroke-miterlimit:4;stroke-opacity:1;stroke-dasharray:none"
       id="rect5911"
       width="60"
       height="60"
       x="335"
       y="562.36218" />
    <rect
       y="562.36218"
       x="415"
       height="60"
       width="60"
       id="rect5913"
       style="fill:#d1c400;fill-opacity:1;stroke:#000000;stroke-width:0.01250000000000000;stroke-linecap:round;stroke-linejoin:round;stroke-miterlimit:4;stroke-opacity:1;stroke-dasharray:none" />
    <rect
       style="fill:#d1c400;fill-opacity:1;stroke:#000000;stroke-width:0.01250000000000000;stroke-linecap:round;stroke-linejoin:round;stroke-miterlimit:4;stroke-opacity:1;stroke-dasharray:none"
       id="rect5915"
       width="60"
       height="60"
       x="495"
       y="562.36218" />
    <rect
       y="562.36218"
       x="575"
       height="60"
       width="60"
       id="rect5917"
       style="fill:#d1c400;fill-opacity:1;stroke:#000000;stroke-width:0.01250000000000000;stroke-linecap:round;stroke-linejoin:round;stroke-miterlimit:4;stroke-opacity:1;stroke-dasharray:none" />
    <rect
       style="fill:#00cf2c;fill-opacity:1;stroke:#000000;stroke-width:0.01250000000000000;stroke-linecap:round;stroke-linejoin:round;stroke-miterlimit:4;stroke-opacity:1;stroke-dasharray:none"
       id="rect5935"
       width="140"
       height="60"
       x="255"
       y="442.36218" />
    <rect
       y="442.36218"
       x="415"
       height="60"
       width="140"
       id="rect5937"
       style="fill:#00cf2c;fill-opacity:1;stroke:#000000;stroke-width:0.01250000000000000;stroke-linecap:round;stroke-linejoin:round;stroke-miterlimit:4;stroke-opacity:1;stroke-dasharray:none" />
    <rect
       style="fill:#d1c400;fill-opacity:1;stroke:#000000;stroke-width:0.01250000000000000;stroke-linecap:round;stroke-linejoin:round;stroke-miterlimit:4;stroke-opacity:1;stroke-dasharray:none"
       id="rect5939"
       width="60"
       height="60"
       x="655"
       y="562.36218" />
    <rect
       style="fill:#00cf2c;fill-opacity:1;stroke:#000000;stroke-width:0.01250000000000000;stroke-linecap:round;stroke-linejoin:round;stroke-miterlimit:4;stroke-opacity:1;stroke-dasharray:none"
       id="rect5941"
       width="140"
       height="60"
       x="575"
       y="442.36218" />
    <path
       style="font-size:medium;font-style:normal;font-variant:normal;font-weight:normal;font-stretch:normal;text-indent:0;text-align:start;text-decoration:none;line-height:normal;letter-spacing:normal;word-spacing:normal;text-transform:none;direction:ltr;block-progression:tb;writing-mode:lr-tb;text-anchor:start;baseline-shift:baseline;color:#000000;fill:#ffffff;fill-opacity:1;stroke:#000000;stroke-width:0.0125;stroke-miterlimit:4;stroke-opacity:1;stroke-dasharray:none;marker:none;visibility:visible;display:inline;overflow:visible;enable-background:accumulate;font-family:Sans;-inkscape-font-specification:Sans"
       d="m 320,507.36218 0,20.01282 -100,-0.0128 -5,5 5,5 60,0.0128 0,19.98718 5,5 5,-5 0,-19.98718 70,0 0,19.98718 5,5 5,-5 0,-19.98718 70,0 0,19.98718 5,5 5,-5 0,-19.98718 70,0 0,19.98718 5,5 5,-5 0,-19.98718 70,0 0,19.98718 5,5 5,-5 0,-19.98718 70,0 0,19.98718 5,5 5,-5 0,-19.98718 20,-0.0128 5,-5 -5,-5 -60,0.0128 0,-20.01282 -5,-5 -5,5 0,20.01282 -150,0 0,-20.01282 -5,-5 -5,5 0,20.01282 -150,0 0,-20.01282 -5,-5 z"
       id="path5970"
       inkscape:connector-curvature="0"
       sodipodi:nodetypes="cccccccccccccccccccccccccccccccccccccccccccccccccccc" />
    <g
       style="font-size:40px;font-style:normal;font-variant:normal;font-weight:normal;font-stretch:normal;line-height:125%;letter-spacing:0px;word-spacing:0px;fill:#ffffff;fill-opacity:1;stroke:#000000;stroke-width:0;stroke-miterlimit:4;stroke-opacity:1;font-family:Droid Sans Mono;-inkscape-font-specification:Droid Sans Mono"
       id="text6084">
      <path
         d="m 307.16797,486.66882 -15.15625,0 0,-2.40234 5.76172,-0.39063 0,-22.96875 -5.76172,-0.39062 0,-2.40234 15.15625,0 0,2.40234 -5.74219,0.39062 0,22.96875 5.74219,0.39063 0,2.40234"
         style=""
         id="path6118" />
      <path
         d="m 331.44531,458.11414 -12.24609,28.55468 -3.47656,0 12.24609,-28.55468 3.47656,0"
         style=""
         id="path6120" />
      <path
         d="m 347.61719,487.05945 c -6.92709,0 -10.39063,-4.91536 -10.39063,-14.7461 0,-9.7656 3.47656,-14.6484 10.42969,-14.64843 3.33332,3e-5 5.8854,1.27607 7.65625,3.82812 1.78383,2.53909 2.67576,6.15888 2.67578,10.85938 -2e-5,4.70053 -0.89846,8.32683 -2.69531,10.8789 -1.79689,2.55209 -4.35549,3.82813 -7.67578,3.82813 m 0,-3.1836 c 2.25259,10e-6 3.89972,-0.944 4.9414,-2.83203 1.05467,-1.88801 1.58202,-4.78514 1.58203,-8.6914 -1e-5,-3.9453 -0.53387,-6.84243 -1.60156,-8.69141 -1.0547,-1.86195 -2.6823,-2.79294 -4.88281,-2.79297 -4.38803,3e-5 -6.58204,3.82815 -6.58203,11.48438 -1e-5,7.6823 2.18098,11.52344 6.54297,11.52343"
         style=""
         id="path6122" />
    </g>
    <g
       style="font-size:40px;font-style:normal;font-variant:normal;font-weight:normal;font-stretch:normal;line-height:125%;letter-spacing:0px;word-spacing:0px;fill:#ffffff;fill-opacity:1;stroke:none;font-family:Droid Sans Mono;-inkscape-font-specification:Droid Sans Mono"
       id="text6088">
      <path
         d="m 467.16797,486.66882 -15.15625,0 0,-2.40234 5.76172,-0.39063 0,-22.96875 -5.76172,-0.39062 0,-2.40234 15.15625,0 0,2.40234 -5.74219,0.39062 0,22.96875 5.74219,0.39063 0,2.40234"
         style=""
         id="path6111" />
      <path
         d="m 491.44531,458.11414 -12.24609,28.55468 -3.47656,0 12.24609,-28.55468 3.47656,0"
         style=""
         id="path6113" />
      <path
         d="m 507.61719,487.05945 c -6.92709,0 -10.39063,-4.91536 -10.39063,-14.7461 0,-9.7656 3.47656,-14.6484 10.42969,-14.64843 3.33332,3e-5 5.8854,1.27607 7.65625,3.82812 1.78383,2.53909 2.67576,6.15888 2.67578,10.85938 -2e-5,4.70053 -0.89846,8.32683 -2.69531,10.8789 -1.79689,2.55209 -4.35549,3.82813 -7.67578,3.82813 m 0,-3.1836 c 2.25259,10e-6 3.89972,-0.944 4.9414,-2.83203 1.05467,-1.88801 1.58202,-4.78514 1.58203,-8.6914 -10e-6,-3.9453 -0.53387,-6.84243 -1.60156,-8.69141 -1.0547,-1.86195 -2.6823,-2.79294 -4.88281,-2.79297 -4.38803,3e-5 -6.58204,3.82815 -6.58203,11.48438 -1e-5,7.6823 2.18098,11.52344 6.54297,11.52343"
         style=""
         id="path6115" />
    </g>
    <g
       style="font-size:40px;font-style:normal;font-variant:normal;font-weight:normal;font-stretch:normal;line-height:125%;letter-spacing:0px;word-spacing:0px;fill:#ffffff;fill-opacity:1;stroke:none;font-family:Droid Sans Mono;-inkscape-font-specification:Droid Sans Mono"
       id="text6092">
      <path
         d="m 627.16797,486.66882 -15.15625,0 0,-2.40234 5.76172,-0.39063 0,-22.96875 -5.76172,-0.39062 0,-2.40234 15.15625,0 0,2.40234 -5.74219,0.39062 0,22.96875 5.74219,0.39063 0,2.40234"
         style=""
         id="path6104" />
      <path
         d="m 651.44531,458.11414 -12.24609,28.55468 -3.47656,0 12.24609,-28.55468 3.47656,0"
         style=""
         id="path6106" />
      <path
         d="m 667.61719,487.05945 c -6.92709,0 -10.39063,-4.91536 -10.39063,-14.7461 0,-9.7656 3.47656,-14.6484 10.42969,-14.64843 3.33332,3e-5 5.8854,1.27607 7.65625,3.82812 1.78383,2.53909 2.67576,6.15888 2.67578,10.85938 -2e-5,4.70053 -0.89846,8.32683 -2.69531,10.8789 -1.79689,2.55209 -4.35549,3.82813 -7.67578,3.82813 m 0,-3.1836 c 2.25259,10e-6 3.89972,-0.944 4.9414,-2.83203 1.05467,-1.88801 1.58202,-4.78514 1.58203,-8.6914 -10e-6,-3.9453 -0.53387,-6.84243 -1.60156,-8.69141 -1.0547,-1.86195 -2.6823,-2.79294 -4.88281,-2.79297 -4.38803,3e-5 -6.58204,3.82815 -6.58203,11.48438 -10e-6,7.6823 2.18098,11.52344 6.54297,11.52343"
         style=""
         id="path6108" />
    </g>
    <g
       style="font-size:40px;font-style:normal;font-variant:normal;font-weight:normal;font-stretch:normal;line-height:125%;letter-spacing:0px;word-spacing:0px;fill:#ffffff;fill-opacity:1;stroke:none;font-family:Droid Sans Mono;-inkscape-font-specification:Droid Sans Mono"
       id="text6096">
      <path
         d="m 110.92773,542.72351 0,3.16406 c -1.90106,0.76823 -4.23178,1.15235 -6.99218,1.15235 -4.023452,0 -7.102876,-1.27604 -9.238284,-3.82813 -2.135421,-2.55208 -3.203128,-6.17837 -3.203125,-10.8789 -3e-6,-4.50519 1.165361,-8.0729 3.496093,-10.70313 2.330721,-2.63018 5.514316,-3.94528 9.550786,-3.94531 2.86456,3e-5 5.35805,0.55992 7.48046,1.67969 l -1.52343,3.04687 c -2.00523,-1.0156 -3.99091,-1.52341 -5.95703,-1.52344 -2.7995,3e-5 -5.032567,1.03518 -6.699223,3.10547 -1.666674,2.05731 -2.500006,4.85028 -2.5,8.37891 -6e-6,3.73699 0.781243,6.58855 2.34375,8.55469 1.56249,1.95312 3.847643,2.92969 6.855473,2.92968 1.69269,10e-6 3.82159,-0.3776 6.38671,-1.13281"
         style=""
         id="path6125" />
      <path
         d="m 120.0293,535.53601 0,11.11328 -3.63282,0 0,-28.55469 7.89063,0 c 6.69269,3e-5 10.03904,2.78649 10.03906,8.35938 -2e-5,2.85158 -0.90497,5.07814 -2.71484,6.67969 -1.79689,1.60157 -4.41408,2.40235 -7.85156,2.40234 l -3.73047,0 m 0,-3.08594 3.32031,0 c 2.57811,2e-5 4.42056,-0.46873 5.52734,-1.40625 1.11978,-0.93748 1.67967,-2.40232 1.67969,-4.39453 -2e-5,-3.63279 -2.20054,-5.44919 -6.60156,-5.44922 l -3.92578,0 0,11.25"
         style=""
         id="path6127" />
      <path
         d="m 158.50586,518.05554 0,18.51563 c -2e-5,3.38542 -0.82033,5.97656 -2.46094,7.77343 -1.64064,1.79688 -4.04949,2.69532 -7.22656,2.69532 -6.28907,0 -9.4336,-3.51562 -9.43359,-10.54688 l 0,-18.39844 3.63281,0 0,18.20313 c -1e-5,5.03907 1.99869,7.5586 5.99609,7.55859 3.84113,10e-6 5.79425,-2.53254 5.85938,-7.59765 l 0,-18.20313 3.63281,0"
         style=""
         id="path6129" />
    </g>
    <g
       style="font-size:40px;font-style:normal;font-variant:normal;font-weight:normal;font-stretch:normal;line-height:125%;letter-spacing:0px;word-spacing:0px;fill:#ffffff;fill-opacity:1;stroke:none;font-family:Droid Sans Mono;-inkscape-font-specification:Droid Sans Mono"
       id="text6100">
      <path
         d="m 279.76562,594.84265 0,11.79688 -3.65234,0 0,-28.55469 6.97266,0 c 6.77081,3e-5 10.15623,2.70185 10.15625,8.10547 -2e-5,3.73699 -1.88153,6.28907 -5.64453,7.65625 l 7.7539,12.79297 -4.27734,0 -6.83594,-11.79688 -4.47266,0 m 0,-3.08594 3.20313,0 c 2.22655,2e-5 3.86717,-0.42967 4.92187,-1.28906 1.05468,-0.85936 1.58202,-2.22654 1.58204,-4.10156 -2e-5,-1.83592 -0.52085,-3.15753 -1.5625,-3.96484 -1.04168,-0.80727 -2.72137,-1.21092 -5.03907,-1.21094 l -3.10547,0 0,10.5664"
         style=""
         id="path6086" />
    </g>
    <g
       style="font-size:40px;font-style:normal;font-variant:normal;font-weight:normal;font-stretch:normal;line-height:125%;letter-spacing:0px;word-spacing:0px;fill:#ffffff;fill-opacity:1;stroke:none;font-family:Droid Sans Mono;-inkscape-font-specification:Droid Sans Mono"
       id="text6104">
      <path
         d="m 360.99609,606.63953 -3.63281,0 0,-28.55469 16.42578,0 0,3.20312 -12.79297,0 0,10.07813 12.05078,0 0,3.20312 -12.05078,0 0,12.07032"
         style=""
         id="path6089" />
    </g>
    <g
       style="font-size:40px;font-style:normal;font-variant:normal;font-weight:normal;font-stretch:normal;line-height:125%;letter-spacing:0px;word-spacing:0px;fill:#ffffff;fill-opacity:1;stroke:none;font-family:Droid Sans Mono;-inkscape-font-specification:Droid Sans Mono"
       id="text6108">
      <path
         d="m 439.66797,595.52625 0,11.11328 -3.63281,0 0,-28.55469 7.89062,0 c 6.69269,3e-5 10.03904,2.78648 10.03906,8.35937 -2e-5,2.85158 -0.90496,5.07814 -2.71484,6.67969 -1.79689,1.60158 -4.41408,2.40236 -7.85156,2.40235 l -3.73047,0 m 0,-3.08594 3.32031,0 c 2.57811,1e-5 4.42056,-0.46874 5.52734,-1.40625 1.11978,-0.93749 1.67967,-2.40233 1.67969,-4.39453 -2e-5,-3.63279 -2.20053,-5.4492 -6.60156,-5.44922 l -3.92578,0 0,11.25"
         style=""
         id="path6092" />
    </g>
    <g
       style="font-size:40px;font-style:normal;font-variant:normal;font-weight:normal;font-stretch:normal;line-height:125%;letter-spacing:0px;word-spacing:0px;fill:#ffffff;fill-opacity:1;stroke:none;font-family:Droid Sans Mono;-inkscape-font-specification:Droid Sans Mono"
       id="text6112">
      <path
         d="m 519.66797,595.52625 0,11.11328 -3.63281,0 0,-28.55469 7.89062,0 c 6.69269,3e-5 10.03904,2.78648 10.03906,8.35937 -2e-5,2.85158 -0.90496,5.07814 -2.71484,6.67969 -1.79689,1.60158 -4.41408,2.40236 -7.85156,2.40235 l -3.73047,0 m 0,-3.08594 3.32031,0 c 2.57811,1e-5 4.42056,-0.46874 5.52734,-1.40625 1.11978,-0.93749 1.67967,-2.40233 1.67969,-4.39453 -2e-5,-3.63279 -2.20053,-5.4492 -6.60156,-5.44922 l -3.92578,0 0,11.25"
         style=""
         id="path6095" />
    </g>
    <g
       style="font-size:40px;font-style:normal;font-variant:normal;font-weight:normal;font-stretch:normal;line-height:125%;letter-spacing:0px;word-spacing:0px;fill:#ffffff;fill-opacity:1;stroke:none;font-family:Droid Sans Mono;-inkscape-font-specification:Droid Sans Mono"
       id="text6116">
      <path
         d="m 599.66797,595.52625 0,11.11328 -3.63281,0 0,-28.55469 7.89062,0 c 6.69269,3e-5 10.03904,2.78648 10.03906,8.35937 -2e-5,2.85158 -0.90496,5.07814 -2.71484,6.67969 -1.79689,1.60158 -4.41408,2.40236 -7.85156,2.40235 l -3.73047,0 m 0,-3.08594 3.32031,0 c 2.57811,1e-5 4.42056,-0.46874 5.52734,-1.40625 1.11978,-0.93749 1.67967,-2.40233 1.67969,-4.39453 -2e-5,-3.63279 -2.20053,-5.4492 -6.60156,-5.44922 l -3.92578,0 0,11.25"
         style=""
         id="path6098" />
    </g>
    <g
       style="font-size:40px;font-style:normal;font-variant:normal;font-weight:normal;font-stretch:normal;line-height:125%;letter-spacing:0px;word-spacing:0px;fill:#ffffff;fill-opacity:1;stroke:none;font-family:Droid Sans Mono;-inkscape-font-specification:Droid Sans Mono"
       id="text6120">
      <path
         d="m 679.66797,595.52625 0,11.11328 -3.63281,0 0,-28.55469 7.89062,0 c 6.69269,3e-5 10.03904,2.78648 10.03906,8.35937 -2e-5,2.85158 -0.90496,5.07814 -2.71484,6.67969 -1.79689,1.60158 -4.41408,2.40236 -7.85156,2.40235 l -3.73047,0 m 0,-3.08594 3.32031,0 c 2.57811,1e-5 4.42056,-0.46874 5.52734,-1.40625 1.11978,-0.93749 1.67967,-2.40233 1.67969,-4.39453 -2e-5,-3.63279 -2.20053,-5.4492 -6.60156,-5.44922 l -3.92578,0 0,11.25"
         style=""
         id="path6101" />
    </g>
  </g>
</svg>
