<?xml version="1.0" encoding="UTF-8" standalone="no"?>
<!-- Created with Inkscape (http://www.inkscape.org/) -->

<svg
   xmlns:dc="http://purl.org/dc/elements/1.1/"
   xmlns:cc="http://creativecommons.org/ns#"
   xmlns:rdf="http://www.w3.org/1999/02/22-rdf-syntax-ns#"
   xmlns:svg="http://www.w3.org/2000/svg"
   xmlns="http://www.w3.org/2000/svg"
   xmlns:sodipodi="http://sodipodi.sourceforge.net/DTD/sodipodi-0.dtd"
   xmlns:inkscape="http://www.inkscape.org/namespaces/inkscape"
   width="325.5"
   height="174"
   id="svg16502"
   version="1.1"
   inkscape:version="0.48.5 r10040"
   sodipodi:docname="tinymega.svg">
  <defs
     id="defs16504" />
  <sodipodi:namedview
     id="base"
     pagecolor="#000000"
     bordercolor="#666666"
     borderopacity="1.0"
     inkscape:pageopacity="0"
     inkscape:pageshadow="2"
     inkscape:zoom="1.979899"
     inkscape:cx="104.13289"
     inkscape:cy="89.229665"
     inkscape:document-units="px"
     inkscape:current-layer="layer1"
     showgrid="false"
     fit-margin-top="1"
     fit-margin-left="1"
     fit-margin-right="1"
     fit-margin-bottom="1"
     inkscape:window-width="1366"
     inkscape:window-height="702"
     inkscape:window-x="0"
     inkscape:window-y="27"
     inkscape:window-maximized="1" />
  <metadata
     id="metadata16507">
    <rdf:RDF>
      <cc:Work
         rdf:about="">
        <dc:format>image/svg+xml</dc:format>
        <dc:type
           rdf:resource="http://purl.org/dc/dcmitype/StillImage" />
        <dc:title />
      </cc:Work>
    </rdf:RDF>
  </metadata>
  <g
     inkscape:label="Layer 1"
     inkscape:groupmode="layer"
     id="layer1"
     transform="translate(-212.26282,-445.36218)">
    <path
       style="fill:#ffffff;fill-opacity:0.26666667;stroke:none"
       d="m 12.625,0.78125 0,60.59375 -10.59375,0 0,64.65625 10.59375,0 0,45.96875 309.625,0 0,-171.21875 -309.625,0 z"
       id="rect16947"
       inkscape:connector-curvature="0"
       transform="translate(213.26282,446.36218)" />
    <path
       style="font-size:medium;font-style:normal;font-variant:normal;font-weight:normal;font-stretch:normal;text-indent:0;text-align:start;text-decoration:none;line-height:normal;letter-spacing:normal;word-spacing:normal;text-transform:none;direction:ltr;block-progression:tb;writing-mode:lr-tb;text-anchor:start;baseline-shift:baseline;color:#000000;fill:#ffffff;fill-opacity:1;fill-rule:nonzero;stroke:#000000;stroke-width:0.01;stroke-miterlimit:4;stroke-opacity:1;stroke-dasharray:none;marker:none;visibility:visible;display:inline;overflow:visible;enable-background:accumulate;font-family:Sans;-inkscape-font-specification:Sans"
       d="m 11.5,0 0,1 0,57.5 -9,0 -2.5,0 0,2.5 0,65 0,2.5 2.5,0 9,0 0,42.5 0,1 1,0 310,0 1,0 0,-1 0,-170 0,-1 -1,0 -310,0 z m 2,2 308,0 0,168 -308,0 0,-41.5 54,0 2.5,0 0,-2.5 0,-65 0,-2.5 -2.5,0 -54,0 z m 63,4 0,30 2,0 0,-30 z m 20,0 0,30 2,0 0,-30 z m 100,0 0,30 2,0 0,-30 z m 20,0 0,30 2,0 0,-30 z m -189,2.5 c -4.11252,0 -7.5,3.38748 -7.5,7.5 0,4.11252 3.38748,7.5 7.5,7.5 4.11252,0 7.5,-3.38748 7.5,-7.5 0,-4.11252 -3.38748,-7.5 -7.5,-7.5 z m 20,0 c -4.11252,0 -7.5,3.38748 -7.5,7.5 0,4.11252 3.38748,7.5 7.5,7.5 4.11252,0 7.5,-3.38748 7.5,-7.5 0,-4.11252 -3.38748,-7.5 -7.5,-7.5 z m 20,0 c -4.11252,0 -7.5,3.38748 -7.5,7.5 0,4.11252 3.38748,7.5 7.5,7.5 4.11252,0 7.5,-3.38748 7.5,-7.5 0,-4.11252 -3.38748,-7.5 -7.5,-7.5 z m 20,0 c -4.11252,0 -7.5,3.38748 -7.5,7.5 0,4.11252 3.38748,7.5 7.5,7.5 4.11252,0 7.5,-3.38748 7.5,-7.5 0,-4.11252 -3.38748,-7.5 -7.5,-7.5 z m 20,0 c -4.11252,0 -7.5,3.38748 -7.5,7.5 0,4.11252 3.38748,7.5 7.5,7.5 4.11252,0 7.5,-3.38748 7.5,-7.5 0,-4.11252 -3.38748,-7.5 -7.5,-7.5 z m 20,0 c -4.11252,0 -7.5,3.38748 -7.5,7.5 0,4.11252 3.38748,7.5 7.5,7.5 4.11252,0 7.5,-3.38748 7.5,-7.5 0,-4.11252 -3.38748,-7.5 -7.5,-7.5 z m 20,0 c -4.11252,0 -7.5,3.38748 -7.5,7.5 0,4.11252 3.38748,7.5 7.5,7.5 4.11252,0 7.5,-3.38748 7.5,-7.5 0,-4.11252 -3.38748,-7.5 -7.5,-7.5 z m 20,0 c -4.11252,0 -7.5,3.38748 -7.5,7.5 0,4.11252 3.38748,7.5 7.5,7.5 4.11252,0 7.5,-3.38748 7.5,-7.5 0,-4.11252 -3.38748,-7.5 -7.5,-7.5 z m 20,0 c -4.11252,0 -7.5,3.38748 -7.5,7.5 0,4.11252 3.38748,7.5 7.5,7.5 4.11252,0 7.5,-3.38748 7.5,-7.5 0,-4.11252 -3.38748,-7.5 -7.5,-7.5 z m 20,0 c -4.11252,0 -7.5,3.38748 -7.5,7.5 0,4.11252 3.38748,7.5 7.5,7.5 4.11252,0 7.5,-3.38748 7.5,-7.5 0,-4.11252 -3.38748,-7.5 -7.5,-7.5 z m 20,0 c -4.11252,0 -7.5,3.38748 -7.5,7.5 0,4.11252 3.38748,7.5 7.5,7.5 4.11252,0 7.5,-3.38748 7.5,-7.5 0,-4.11252 -3.38748,-7.5 -7.5,-7.5 z m 20,0 c -4.11252,0 -7.5,3.38748 -7.5,7.5 0,4.11252 3.38748,7.5 7.5,7.5 4.11252,0 7.5,-3.38748 7.5,-7.5 0,-4.11252 -3.38748,-7.5 -7.5,-7.5 z m 20,0 c -4.11252,0 -7.5,3.38748 -7.5,7.5 0,4.11252 3.38748,7.5 7.5,7.5 4.11252,0 7.5,-3.38748 7.5,-7.5 0,-4.11252 -3.38748,-7.5 -7.5,-7.5 z m 20,0 c -4.11252,0 -7.5,3.38748 -7.5,7.5 0,4.11252 3.38748,7.5 7.5,7.5 4.11252,0 7.5,-3.38748 7.5,-7.5 0,-4.11252 -3.38748,-7.5 -7.5,-7.5 z m 20,0 c -4.11252,0 -7.5,3.38748 -7.5,7.5 0,4.11252 3.38748,7.5 7.5,7.5 4.11252,0 7.5,-3.38748 7.5,-7.5 0,-4.11252 -3.38748,-7.5 -7.5,-7.5 z m -280,5 c 1.41032,0 2.5,1.08968 2.5,2.5 0,1.41032 -1.08968,2.5 -2.5,2.5 -1.41032,0 -2.5,-1.08968 -2.5,-2.5 0,-1.41032 1.08968,-2.5 2.5,-2.5 z m 20,0 c 1.41032,0 2.5,1.08968 2.5,2.5 0,1.41032 -1.08968,2.5 -2.5,2.5 -1.41032,0 -2.5,-1.08968 -2.5,-2.5 0,-1.41032 1.08968,-2.5 2.5,-2.5 z m 20,0 c 1.41032,0 2.5,1.08968 2.5,2.5 0,1.41032 -1.08968,2.5 -2.5,2.5 -1.41032,0 -2.5,-1.08968 -2.5,-2.5 0,-1.41032 1.08968,-2.5 2.5,-2.5 z m 20,0 c 1.41032,0 2.5,1.08968 2.5,2.5 0,1.41032 -1.08968,2.5 -2.5,2.5 -1.41032,0 -2.5,-1.08968 -2.5,-2.5 0,-1.41032 1.08968,-2.5 2.5,-2.5 z m 20,0 c 1.41032,0 2.5,1.08968 2.5,2.5 0,1.41032 -1.08968,2.5 -2.5,2.5 -1.41032,0 -2.5,-1.08968 -2.5,-2.5 0,-1.41032 1.08968,-2.5 2.5,-2.5 z m 20,0 c 1.41032,0 2.5,1.08968 2.5,2.5 0,1.41032 -1.08968,2.5 -2.5,2.5 -1.41032,0 -2.5,-1.08968 -2.5,-2.5 0,-1.41032 1.08968,-2.5 2.5,-2.5 z m 20,0 c 1.41032,0 2.5,1.08968 2.5,2.5 0,1.41032 -1.08968,2.5 -2.5,2.5 -1.41032,0 -2.5,-1.08968 -2.5,-2.5 0,-1.41032 1.08968,-2.5 2.5,-2.5 z m 20,0 c 1.41032,0 2.5,1.08968 2.5,2.5 0,1.41032 -1.08968,2.5 -2.5,2.5 -1.41032,0 -2.5,-1.08968 -2.5,-2.5 0,-1.41032 1.08968,-2.5 2.5,-2.5 z m 20,0 c 1.41032,0 2.5,1.08968 2.5,2.5 0,1.41032 -1.08968,2.5 -2.5,2.5 -1.41032,0 -2.5,-1.08968 -2.5,-2.5 0,-1.41032 1.08968,-2.5 2.5,-2.5 z m 20,0 c 1.41032,0 2.5,1.08968 2.5,2.5 0,1.41032 -1.08968,2.5 -2.5,2.5 -1.41032,0 -2.5,-1.08968 -2.5,-2.5 0,-1.41032 1.08968,-2.5 2.5,-2.5 z m 20,0 c 1.41032,0 2.5,1.08968 2.5,2.5 0,1.41032 -1.08968,2.5 -2.5,2.5 -1.41032,0 -2.5,-1.08968 -2.5,-2.5 0,-1.41032 1.08968,-2.5 2.5,-2.5 z m 20,0 c 1.41032,0 2.5,1.08968 2.5,2.5 0,1.41032 -1.08968,2.5 -2.5,2.5 -1.41032,0 -2.5,-1.08968 -2.5,-2.5 0,-1.41032 1.08968,-2.5 2.5,-2.5 z m 20,0 c 1.41032,0 2.5,1.08968 2.5,2.5 0,1.41032 -1.08968,2.5 -2.5,2.5 -1.41032,0 -2.5,-1.08968 -2.5,-2.5 0,-1.41032 1.08968,-2.5 2.5,-2.5 z m 20,0 c 1.41032,0 2.5,1.08968 2.5,2.5 0,1.41032 -1.08968,2.5 -2.5,2.5 -1.41032,0 -2.5,-1.08968 -2.5,-2.5 0,-1.41032 1.08968,-2.5 2.5,-2.5 z m 20,0 c 1.41032,0 2.5,1.08968 2.5,2.5 0,1.41032 -1.08968,2.5 -2.5,2.5 -1.41032,0 -2.5,-1.08968 -2.5,-2.5 0,-1.41032 1.08968,-2.5 2.5,-2.5 z m -35.25,20 c -1.22351,0.123064 -2.25605,1.270333 -2.25,2.5 l 0,20 c -0.004,0.08326 -0.004,0.166736 0,0.25 0.12306,1.223509 1.27033,2.256051 2.5,2.25 l 35,0 c 1.30896,-1.31e-4 2.49987,-1.191039 2.5,-2.5 l 0,-20 c -1.3e-4,-1.308961 -1.19104,-2.499869 -2.5,-2.5 l -35,0 c -0.0833,-0.0042 -0.16674,-0.0042 -0.25,0 z m 2.75,5 15,0 15,0 0,15 -15,0 -15,0 z m 15,15 c 4.11252,0 7.5,-3.38748 7.5,-7.5 0,-4.11252 -3.38748,-7.5 -7.5,-7.5 -4.11252,0 -7.5,3.38748 -7.5,7.5 0,4.11252 3.38748,7.5 7.5,7.5 z m -285,10 60,0 0,60 -60,0 z m 267.25,30 c -1.22351,0.123064 -2.25605,1.270333 -2.25,2.5 l 0,20 c -0.004,0.0833 -0.004,0.16674 0,0.25 0.12306,1.22351 1.27033,2.25605 2.5,2.25 l 35,0 c 1.30896,-1.3e-4 2.49987,-1.19104 2.5,-2.5 l 0,-20 c -1.3e-4,-1.308961 -1.19104,-2.499869 -2.5,-2.5 l -35,0 c -0.0833,-0.0042 -0.16674,-0.0042 -0.25,0 z m 2.75,5 15,0 15,0 0,15 -15,0 -15,0 z m 15,15 c 4.11252,0 7.5,-3.38748 7.5,-7.5 0,-4.11252 -3.38748,-7.5 -7.5,-7.5 -4.11252,0 -7.5,3.38748 -7.5,7.5 0,4.11252 3.38748,7.5 7.5,7.5 z m -153.5,22.5 0,30 2,0 0,-30 z m 20,0 0,30 2,0 0,-30 z m 40,0 0,30 2,0 0,-30 z m 60,0 0,30 2,0 0,-30 z m -229,12.5 c -4.11252,0 -7.5,3.38748 -7.5,7.5 0,4.11252 3.38748,7.5 7.5,7.5 4.11252,0 7.5,-3.38748 7.5,-7.5 0,-4.11252 -3.38748,-7.5 -7.5,-7.5 z m 20,0 c -4.11252,0 -7.5,3.38748 -7.5,7.5 0,4.11252 3.38748,7.5 7.5,7.5 4.11252,0 7.5,-3.38748 7.5,-7.5 0,-4.11252 -3.38748,-7.5 -7.5,-7.5 z m 20,0 c -4.11252,0 -7.5,3.38748 -7.5,7.5 0,4.11252 3.38748,7.5 7.5,7.5 4.11252,0 7.5,-3.38748 7.5,-7.5 0,-4.11252 -3.38748,-7.5 -7.5,-7.5 z m 20,0 c -4.11252,0 -7.5,3.38748 -7.5,7.5 0,4.11252 3.38748,7.5 7.5,7.5 4.11252,0 7.5,-3.38748 7.5,-7.5 0,-4.11252 -3.38748,-7.5 -7.5,-7.5 z m 20,0 c -4.11252,0 -7.5,3.38748 -7.5,7.5 0,4.11252 3.38748,7.5 7.5,7.5 4.11252,0 7.5,-3.38748 7.5,-7.5 0,-4.11252 -3.38748,-7.5 -7.5,-7.5 z m 20,0 c -4.11252,0 -7.5,3.38748 -7.5,7.5 0,4.11252 3.38748,7.5 7.5,7.5 4.11252,0 7.5,-3.38748 7.5,-7.5 0,-4.11252 -3.38748,-7.5 -7.5,-7.5 z m 20,0 c -4.11252,0 -7.5,3.38748 -7.5,7.5 0,4.11252 3.38748,7.5 7.5,7.5 4.11252,0 7.5,-3.38748 7.5,-7.5 0,-4.11252 -3.38748,-7.5 -7.5,-7.5 z m 20,0 c -4.11252,0 -7.5,3.38748 -7.5,7.5 0,4.11252 3.38748,7.5 7.5,7.5 4.11252,0 7.5,-3.38748 7.5,-7.5 0,-4.11252 -3.38748,-7.5 -7.5,-7.5 z m 20,0 c -4.11252,0 -7.5,3.38748 -7.5,7.5 0,4.11252 3.38748,7.5 7.5,7.5 4.11252,0 7.5,-3.38748 7.5,-7.5 0,-4.11252 -3.38748,-7.5 -7.5,-7.5 z m 20,0 c -4.11252,0 -7.5,3.38748 -7.5,7.5 0,4.11252 3.38748,7.5 7.5,7.5 4.11252,0 7.5,-3.38748 7.5,-7.5 0,-4.11252 -3.38748,-7.5 -7.5,-7.5 z m 20,0 c -4.11252,0 -7.5,3.38748 -7.5,7.5 0,4.11252 3.38748,7.5 7.5,7.5 4.11252,0 7.5,-3.38748 7.5,-7.5 0,-4.11252 -3.38748,-7.5 -7.5,-7.5 z m 20,0 c -4.11252,0 -7.5,3.38748 -7.5,7.5 0,4.11252 3.38748,7.5 7.5,7.5 4.11252,0 7.5,-3.38748 7.5,-7.5 0,-4.11252 -3.38748,-7.5 -7.5,-7.5 z m 20,0 c -4.11252,0 -7.5,3.38748 -7.5,7.5 0,4.11252 3.38748,7.5 7.5,7.5 4.11252,0 7.5,-3.38748 7.5,-7.5 0,-4.11252 -3.38748,-7.5 -7.5,-7.5 z m 20,0 c -4.11252,0 -7.5,3.38748 -7.5,7.5 0,4.11252 3.38748,7.5 7.5,7.5 4.11252,0 7.5,-3.38748 7.5,-7.5 0,-4.11252 -3.38748,-7.5 -7.5,-7.5 z m 20,0 c -4.11252,0 -7.5,3.38748 -7.5,7.5 0,4.11252 3.38748,7.5 7.5,7.5 4.11252,0 7.5,-3.38748 7.5,-7.5 0,-4.11252 -3.38748,-7.5 -7.5,-7.5 z m -280,5 c 1.41032,0 2.5,1.08968 2.5,2.5 0,1.41032 -1.08968,2.5 -2.5,2.5 -1.41032,0 -2.5,-1.08968 -2.5,-2.5 0,-1.41032 1.08968,-2.5 2.5,-2.5 z m 20,0 c 1.41032,0 2.5,1.08968 2.5,2.5 0,1.41032 -1.08968,2.5 -2.5,2.5 -1.41032,0 -2.5,-1.08968 -2.5,-2.5 0,-1.41032 1.08968,-2.5 2.5,-2.5 z m 20,0 c 1.41032,0 2.5,1.08968 2.5,2.5 0,1.41032 -1.08968,2.5 -2.5,2.5 -1.41032,0 -2.5,-1.08968 -2.5,-2.5 0,-1.41032 1.08968,-2.5 2.5,-2.5 z m 20,0 c 1.41032,0 2.5,1.08968 2.5,2.5 0,1.41032 -1.08968,2.5 -2.5,2.5 -1.41032,0 -2.5,-1.08968 -2.5,-2.5 0,-1.41032 1.08968,-2.5 2.5,-2.5 z m 20,0 c 1.41032,0 2.5,1.08968 2.5,2.5 0,1.41032 -1.08968,2.5 -2.5,2.5 -1.41032,0 -2.5,-1.08968 -2.5,-2.5 0,-1.41032 1.08968,-2.5 2.5,-2.5 z m 20,0 c 1.41032,0 2.5,1.08968 2.5,2.5 0,1.41032 -1.08968,2.5 -2.5,2.5 -1.41032,0 -2.5,-1.08968 -2.5,-2.5 0,-1.41032 1.08968,-2.5 2.5,-2.5 z m 20,0 c 1.41032,0 2.5,1.08968 2.5,2.5 0,1.41032 -1.08968,2.5 -2.5,2.5 -1.41032,0 -2.5,-1.08968 -2.5,-2.5 0,-1.41032 1.08968,-2.5 2.5,-2.5 z m 20,0 c 1.41032,0 2.5,1.08968 2.5,2.5 0,1.41032 -1.08968,2.5 -2.5,2.5 -1.41032,0 -2.5,-1.08968 -2.5,-2.5 0,-1.41032 1.08968,-2.5 2.5,-2.5 z m 20,0 c 1.41032,0 2.5,1.08968 2.5,2.5 0,1.41032 -1.08968,2.5 -2.5,2.5 -1.41032,0 -2.5,-1.08968 -2.5,-2.5 0,-1.41032 1.08968,-2.5 2.5,-2.5 z m 20,0 c 1.41032,0 2.5,1.08968 2.5,2.5 0,1.41032 -1.08968,2.5 -2.5,2.5 -1.41032,0 -2.5,-1.08968 -2.5,-2.5 0,-1.41032 1.08968,-2.5 2.5,-2.5 z m 20,0 c 1.41032,0 2.5,1.08968 2.5,2.5 0,1.41032 -1.08968,2.5 -2.5,2.5 -1.41032,0 -2.5,-1.08968 -2.5,-2.5 0,-1.41032 1.08968,-2.5 2.5,-2.5 z m 20,0 c 1.41032,0 2.5,1.08968 2.5,2.5 0,1.41032 -1.08968,2.5 -2.5,2.5 -1.41032,0 -2.5,-1.08968 -2.5,-2.5 0,-1.41032 1.08968,-2.5 2.5,-2.5 z m 20,0 c 1.41032,0 2.5,1.08968 2.5,2.5 0,1.41032 -1.08968,2.5 -2.5,2.5 -1.41032,0 -2.5,-1.08968 -2.5,-2.5 0,-1.41032 1.08968,-2.5 2.5,-2.5 z m 20,0 c 1.41032,0 2.5,1.08968 2.5,2.5 0,1.41032 -1.08968,2.5 -2.5,2.5 -1.41032,0 -2.5,-1.08968 -2.5,-2.5 0,-1.41032 1.08968,-2.5 2.5,-2.5 z m 20,0 c 1.41032,0 2.5,1.08968 2.5,2.5 0,1.41032 -1.08968,2.5 -2.5,2.5 -1.41032,0 -2.5,-1.08968 -2.5,-2.5 0,-1.41032 1.08968,-2.5 2.5,-2.5 z"
       transform="translate(213.26282,446.36218)"
       id="rect3899"
       inkscape:connector-curvature="0"
       sodipodi:nodetypes="ccccccccccccccccccccccccccccccccccccccccccccccccccccccssssssssssssssssssssssssssssssssssssssssssssssssssssssssssssssssssssssssssssssssssssssssssssssssssssssssssssssssssssssssssssssssssssssssssssssssssssssccccccccccccccccccssssscccccccccccccccccccccccsssssccccccccccccccccccccssssssssssssssssssssssssssssssssssssssssssssssssssssssssssssssssssssssssssssssssssssssssssssssssssssssssssssssssssssssssssssssssssssssssssssssssssssss" />
    <path
       sodipodi:type="arc"
       style="fill:#65ff5a;fill-opacity:1;stroke:none"
       id="path3951"
       sodipodi:cx="285"
       sodipodi:cy="357.36218"
       sodipodi:rx="5"
       sodipodi:ry="5"
       d="m 290,357.36218 a 5,5 0 1 1 -10,0 5,5 0 1 1 10,0 z"
       transform="matrix(0,-1.2,1.2,0,-123.08462,915.36218)" />
    <path
       transform="matrix(0,-1.2,1.2,0,-103.08462,835.36218)"
       d="m 290,357.36218 a 5,5 0 1 1 -10,0 5,5 0 1 1 10,0 z"
       sodipodi:ry="5"
       sodipodi:rx="5"
       sodipodi:cy="357.36218"
       sodipodi:cx="285"
       id="path3921-5"
       style="fill:#5a8bff;fill-opacity:1;stroke:none"
       sodipodi:type="arc" />
  </g>
</svg>
