<?xml version="1.0" encoding="UTF-8" standalone="no"?>
<!-- Created with Inkscape (http://www.inkscape.org/) -->

<svg
   xmlns:dc="http://purl.org/dc/elements/1.1/"
   xmlns:cc="http://creativecommons.org/ns#"
   xmlns:rdf="http://www.w3.org/1999/02/22-rdf-syntax-ns#"
   xmlns:svg="http://www.w3.org/2000/svg"
   xmlns="http://www.w3.org/2000/svg"
   xmlns:sodipodi="http://sodipodi.sourceforge.net/DTD/sodipodi-0.dtd"
   xmlns:inkscape="http://www.inkscape.org/namespaces/inkscape"
   width="178.12503"
   height="117.125"
   id="svg7349"
   version="1.1"
   inkscape:version="0.48.5 r10040"
   sodipodi:docname="usbcable.svg">
  <defs
     id="defs7351" />
  <sodipodi:namedview
     id="base"
     pagecolor="#000000"
     bordercolor="#666666"
     borderopacity="1.0"
     inkscape:pageopacity="0"
     inkscape:pageshadow="2"
     inkscape:zoom="2.8"
     inkscape:cx="59.486715"
     inkscape:cy="38.558895"
     inkscape:document-units="px"
     inkscape:current-layer="layer1"
     showgrid="false"
     fit-margin-top="1"
     fit-margin-left="1"
     fit-margin-right="1"
     fit-margin-bottom="1"
     inkscape:window-width="1366"
     inkscape:window-height="702"
     inkscape:window-x="0"
     inkscape:window-y="27"
     inkscape:window-maximized="1" />
  <metadata
     id="metadata7354">
    <rdf:RDF>
      <cc:Work
         rdf:about="">
        <dc:format>image/svg+xml</dc:format>
        <dc:type
           rdf:resource="http://purl.org/dc/dcmitype/StillImage" />
        <dc:title />
      </cc:Work>
    </rdf:RDF>
  </metadata>
  <g
     inkscape:label="Layer 1"
     inkscape:groupmode="layer"
     id="layer1"
     transform="translate(-285.93747,-473.8125)">
    <path
       style="fill:#ffffff;fill-opacity:0.26666667;stroke:none"
       d="M 140.375,1.0625 C 134.54911,1.0848214 128.75,1.25 128.75,1.25 l -11.96875,3.40625 -12.125,7.65625 -11.09375,2.34375 -0.34375,10 7.3125,1.25 9.125,4.8125 11.78125,6.0625 31.0625,0 1.59375,-5.15625 19.125,0.34375 0,-23.21875 -19.46875,0 c 0,0 -1.41518,-5.71875 -1.59375,-6.96875 -0.0893,-0.625 -5.95536,-0.7410714 -11.78125,-0.71875 z m -101.75,51.3125 -1.53125,9.59375 -34.5625,0 0,39.90625 34.03125,0 0.5625,9.71875 47.96875,1 7.09375,-2.78125 c 0,0 8.4375,-7.68115 8.4375,-8.3125 0,-0.63135 6.84375,-7.09375 6.84375,-7.09375 l 9.59375,-2.5 -0.375,-19.46875 -8.59375,-1.625 -6.0625,-6.0625 -7.34375,-8.46875 c 0,0 -8.587405,-3.782519 -9.21875,-3.65625 C 84.837404,52.751269 38.625,52.375 38.625,52.375 z"
       transform="translate(286.99997,474.87188)"
       id="rect18838"
       inkscape:connector-curvature="0" />
    <path
       style="font-size:medium;font-style:normal;font-variant:normal;font-weight:normal;font-stretch:normal;text-indent:0;text-align:start;text-decoration:none;line-height:normal;letter-spacing:normal;word-spacing:normal;text-transform:none;direction:ltr;block-progression:tb;writing-mode:lr-tb;text-anchor:start;baseline-shift:baseline;color:#000000;fill:#ffffff;fill-opacity:1;stroke:#000000;stroke-width:0.01;stroke-miterlimit:4;stroke-opacity:1;stroke-dasharray:none;marker:none;visibility:visible;display:inline;overflow:visible;enable-background:accumulate;font-family:Sans;-inkscape-font-specification:Sans"
       d="m 380.65378,494.94314 c -5.25444,0 -7.24006,0.28523 -11.44357,2.20217 -2.10175,0.95847 -3.03598,1.69224 -4.04632,3.79696 -0.98033,2.0422 0.14214,4.65458 2.22638,6.11799 1.82656,1.28249 2.48617,2.64722 9.80151,5.51374 6.99232,2.73994 13.48568,5.17424 28.06075,8.62819 15.953,3.78049 19.51653,5.3631 28.27647,10.23598 2.52645,1.40539 5.37667,2.86082 6.80911,5.37203 1.57685,2.76436 3.18183,5.92268 1.27496,9.46191 -0.61911,1.14909 -5.20203,4.65427 -10.79293,6.45046 -5.5909,1.79619 -17.98184,3.61989 -25.55803,3.61989 l 0.23789,5.12629 c 8.3637,0 16.43886,-1.18452 23.0625,-3.3125 6.62364,-2.12798 12.14758,-4.89832 14.53125,-10.21875 1.19184,-2.66021 1.0954,-6.03001 -0.34375,-8.78125 -1.43915,-2.75124 -3.89502,-5.03978 -7.25,-7.21875 -6.70995,-4.35794 -17.40419,-8.38546 -33.84375,-12.28125 -14.1586,-3.35526 -23.50201,-6.78269 -29.03125,-9.78125 -5.52924,-2.99856 -6.55042,-5.37783 -6.5625,-5.65625 -0.006,-0.13921 -0.0234,-0.23758 0.4375,-0.75 0.46092,-0.51242 1.43412,-1.24641 2.8125,-1.875 2.75677,-1.25718 6.99319,-2.125 11.1875,-2.125 z"
       id="path7282"
       inkscape:connector-curvature="0"
       sodipodi:nodetypes="csssssaassccssssssccscc" />
    <path
       style="font-size:medium;font-style:normal;font-variant:normal;font-weight:normal;font-stretch:normal;text-indent:0;text-align:start;text-decoration:none;line-height:normal;letter-spacing:normal;word-spacing:normal;text-transform:none;direction:ltr;block-progression:tb;writing-mode:lr-tb;text-anchor:start;baseline-shift:baseline;color:#000000;fill:#ffffff;fill-opacity:1;stroke:#000000;stroke-width:0.01;stroke-miterlimit:4;stroke-opacity:1;stroke-dasharray:none;marker:none;visibility:visible;display:inline;overflow:visible;enable-background:accumulate;font-family:Sans;-inkscape-font-specification:Sans"
       d="m 380.5,491.25 c -5.25444,0 -10.39024,0.95806 -14.59375,2.875 -2.10175,0.95847 -3.98504,2.15955 -5.5,3.84375 -1.51496,1.6842 -2.64168,4.04945 -2.53125,6.59375 0.22086,5.0886 4.21081,8.95109 10.8125,12.53125 6.60169,3.58016 16.51868,7.0773 31.09375,10.53125 15.953,3.78049 26.00826,7.78313 31.25,11.1875 2.62087,1.70218 3.96631,3.25546 4.4375,4.15625 0.47119,0.90079 0.42309,1.02941 0.15625,1.625 -0.53367,1.19117 -3.9716,3.95381 -9.5625,5.75 -5.5909,1.79619 -12.98631,2.90625 -20.5625,2.90625 l 0.0841,0.31298 c 8.30528,-0.58421 13.6493,-0.90635 20.16092,-2.97608 2.78867,-0.88639 6.79106,-2.60522 8.0973,-3.74275 0.78782,-0.68607 2.24442,-2.06247 2.34757,-2.80987 0.23092,-1.6732 -0.53086,-4.70337 -3.88584,-6.88234 -6.70995,-4.35794 -15.89032,-8.72187 -32.32988,-12.61766 -14.1586,-3.35526 -26.36154,-6.65654 -31.89078,-9.6551 -5.52924,-2.99856 -9.95663,-4.45268 -9.96871,-11.16505 -0.0901,-3.75568 2.96229,-6.12486 3.42319,-6.63728 2.01684,-1.85808 4.71417,-2.76028 6.09255,-3.38887 2.75677,-1.25718 8.59117,-1.95679 12.78548,-1.95679 z"
       id="path7286"
       inkscape:connector-curvature="0"
       sodipodi:nodetypes="csssssssssccssssssccscc" />
    <path
       inkscape:connector-curvature="0"
       style="font-size:medium;font-style:normal;font-variant:normal;font-weight:normal;font-stretch:normal;text-indent:0;text-align:start;text-decoration:none;line-height:normal;letter-spacing:normal;word-spacing:normal;text-transform:none;direction:ltr;block-progression:tb;writing-mode:lr-tb;text-anchor:start;baseline-shift:baseline;color:#000000;fill:#ffffff;fill-opacity:1;stroke:#000000;stroke-width:0.01;stroke-miterlimit:4;stroke-opacity:1;stroke-dasharray:none;marker:none;visibility:visible;display:inline;overflow:visible;enable-background:accumulate;font-family:Sans;-inkscape-font-specification:Sans"
       d="m 415.49997,474.87188 c -10.48611,0 -15.28125,3.42708 -19.03125,6.34375 -3.75,2.91667 -6.45486,5.3125 -15.96875,5.3125 a 2.50025,2.50025 0 0 0 -2.5,2.5 l 0,11.65625 a 2.50025,2.50025 0 0 0 2.5,2.5 c 9.51389,0 12.21875,2.39583 15.96875,5.3125 3.75,2.91667 8.54514,6.375 19.03125,6.375 l 25,0 a 2.50025,2.50025 0 0 0 2.5,-2.5 l 0,-3.34375 17.5,0 a 2.50025,2.50025 0 0 0 2.5,-2.5 l 0,-23.34375 a 2.50025,2.50025 0 0 0 -2.5,-2.5 l -17.5,0 0,-3.3125 a 2.50025,2.50025 0 0 0 -2.5,-2.5 l -25,0 z m 0,5 22.5,0 0,3.0625 a 2.50025,2.50025 0 0 0 0,0.25 l 0,23.34375 a 2.50025,2.50025 0 0 0 0,0.1875 l 0,3.15625 -22.5,0 c -9.51389,0 -12.21875,-2.39583 -15.96875,-5.3125 -3.40906,-2.65149 -7.9038,-5.61689 -16.53125,-6.15625 l 0,-7.09375 c 8.62745,-0.53936 13.12219,-3.50476 16.53125,-6.15625 3.75,-2.91667 6.45486,-5.28125 15.96875,-5.28125 z m 27.5,5.8125 15,0 0,18.34375 -15,0 0,-18.34375 z m 2.5,1.6875 0,5 10,0 0,-5 -10,0 z m 0,10 0,5 10,0 0,-5 -10,0 z"
       id="rect6457" />
    <path
       inkscape:connector-curvature="0"
       style="font-size:medium;font-style:normal;font-variant:normal;font-weight:normal;font-stretch:normal;text-indent:0;text-align:start;text-decoration:none;line-height:normal;letter-spacing:normal;word-spacing:normal;text-transform:none;direction:ltr;block-progression:tb;writing-mode:lr-tb;text-anchor:start;baseline-shift:baseline;color:#000000;fill:#ffffff;fill-opacity:1;stroke:#000000;stroke-width:0.01;stroke-miterlimit:4;stroke-opacity:1;stroke-dasharray:none;marker:none;visibility:visible;display:inline;overflow:visible;enable-background:accumulate;font-family:Sans;-inkscape-font-specification:Sans"
       d="m 325.24997,524.87188 a 2.50025,2.50025 0 0 0 -2.25,2.5 l 0,7.5 -33.5,0 a 2.50025,2.50025 0 0 0 -0.25,0 2.50025,2.50025 0 0 0 -2.25,2.5 l 0,40 a 2.50025,2.50025 0 0 0 2.5,2.5 l 33.5,0 0,7.5 a 2.50025,2.50025 0 0 0 2.5,2.5 l 44,0 c 5.41667,0 9.47249,-1.43463 12.53125,-3.59375 3.05876,-2.15912 5.09375,-4.90625 6.96875,-7.40625 1.875,-2.5 3.59001,-4.75287 5.84375,-6.34375 2.25374,-1.59088 5.07292,-2.65625 9.65625,-2.65625 a 2.50025,2.50025 0 0 0 2.5,-2.5 l 0,-20 a 2.50025,2.50025 0 0 0 -2.5,-2.5 c -4.58333,0 -7.40251,-1.09662 -9.65625,-2.6875 -2.25374,-1.59088 -3.96875,-3.8125 -5.84375,-6.3125 -1.875,-2.5 -3.90999,-5.27838 -6.96875,-7.4375 -3.05876,-2.15912 -7.11458,-3.5625 -12.53125,-3.5625 l -44,0 a 2.50025,2.50025 0 0 0 -0.25,0 z m 2.75,5 41.5,0 c 4.58333,0 7.40251,1.06537 9.65625,2.65625 2.25374,1.59088 3.96875,3.84375 5.84375,6.34375 1.875,2.5 3.90999,5.24713 6.96875,7.40625 2.55728,1.80514 5.86656,3.03148 10.03125,3.40625 l 0,15.34375 c -4.16503,0.37469 -7.47383,1.60101 -10.03125,3.40625 -3.05876,2.15912 -5.09375,4.9375 -6.96875,7.4375 -1.875,2.5 -3.59001,4.72162 -5.84375,6.3125 -2.25374,1.59088 -5.07292,2.6875 -9.65625,2.6875 l -41.5,0 0,-55 z m -36,10 30,0 0,35 -30,0 0,-35 z m 12.5,2.5 0,10 10,0 0,-10 -10,0 z m 55.8125,3.96875 a 1.0001,1.0001 0 0 0 -0.0937,0.0312 l -14.71875,0 a 1.0001,1.0001 0 0 0 -0.1875,0 1.0043849,1.0043849 0 1 0 0.1875,2 l 14.375,0 4,8 -23.375,0 a 1.0001,1.0001 0 0 0 -0.1875,0 1.0043849,1.0043849 0 1 0 0.1875,2 l 28.375,0 -4,8 -14.375,0 a 1.0001,1.0001 0 0 0 -0.1875,0 1.0043849,1.0043849 0 1 0 0.1875,2 l 15,0 a 1.0132183,1.0132183 0 0 0 0.0625,0 1.0001,1.0001 0 0 0 0.0312,0 1.0132183,1.0132183 0 0 0 0.1875,-0.0312 1.0001,1.0001 0 0 0 0.0937,-0.0312 1.0132183,1.0132183 0 0 0 0.375,-0.25 1.0001,1.0001 0 0 0 0.15625,-0.21875 1.0132183,1.0132183 0 0 0 0,-0.0312 l 0.0312,-0.0625 a 1.0001,1.0001 0 0 0 0.0312,-0.0937 l 4.65625,-9.28125 4.375,0 a 1.0001,1.0001 0 1 0 0,-2 l -4.71875,0 a 1.0001,1.0001 0 0 0 -0.3125,-0.0312 1.0001,1.0001 0 0 0 -0.1875,0.0312 l -4.15625,0 -4.65625,-9.3125 a 1.0001,1.0001 0 0 0 -0.0625,-0.15625 1.0001,1.0001 0 0 0 -0.0312,-0.0312 1.0001,1.0001 0 0 0 -0.0625,-0.125 1.0001,1.0001 0 0 0 -0.34375,-0.28125 1.0001,1.0001 0 0 0 -0.0625,-0.0312 1.0001,1.0001 0 0 0 -0.0312,0 1.0001,1.0001 0 0 0 -0.0625,-0.0312 1.0001,1.0001 0 0 0 -0.0312,0 1.0001,1.0001 0 0 0 -0.0625,-0.0312 1.0001,1.0001 0 0 0 -0.3125,-0.0312 1.0001,1.0001 0 0 0 -0.0937,0 z m -55.8125,16.03125 0,10 10,0 0,-10 -10,0 z"
       id="rect6435" />
  </g>
</svg>
